<svg width="63" height="61" viewBox="0 0 63 61" fill="none" xmlns="http://www.w3.org/2000/svg">
<g clip-path="url(#clip0_58_726)">
<path d="M32.6704 3.08497C32.9392 3.08497 33.208 3.08497 33.4768 3.14068C32.7393 2.32277 32.0794 1.43877 31.5055 0.5C30.7092 1.76289 29.7821 2.93925 28.7391 4.00976C29.9617 3.40781 31.3063 3.09151 32.6704 3.08497Z" fill="#02B45E"/>
<path d="M4.22206 56.1099C4.22425 54.935 4.67167 53.804 5.4751 52.9428C6.27853 52.0816 7.37888 51.5534 8.55651 51.4637C8.29661 50.9046 8.15919 50.2969 8.15332 49.681C8.15675 49.0329 8.31009 48.3943 8.60142 47.8147C8.89275 47.2351 9.31426 46.7299 9.83334 46.3383C9.25586 43.2213 9.64654 40.0033 10.9534 37.1127C14.3134 29.4247 21.0335 28.589 25.5135 25.5138C27.518 24.1731 29.3109 22.5434 30.8336 20.6782C29.4387 20.3947 28.1325 19.7822 27.0251 18.8922C25.9176 18.0021 25.0411 16.8606 24.4693 15.5635C23.8975 14.2664 23.6471 12.8517 23.7392 11.4383C23.8312 10.025 24.263 8.65424 24.9983 7.44141C24.3263 7.96508 23.6095 8.49989 22.7583 9.04585C16.5422 13.291 7.21248 14.4498 2.59802 25.0681C1.42432 27.6112 0.771325 30.3613 0.677101 33.1581C0.582877 35.9548 1.04932 38.7423 2.04923 41.3578C1.04623 43.9727 0.578144 46.7605 0.672384 49.5577C0.766623 52.355 1.42128 55.1053 2.59802 57.6475C3.07209 58.6562 3.6147 59.6315 4.22206 60.5667V56.1099Z" fill="#1FA6F1"/>
<path d="M60.3237 25.0237C55.698 14.4053 46.3571 13.2465 40.1634 9.00139C37.7231 7.35615 35.5026 5.40929 33.5553 3.20752C32.4408 3.48721 31.4031 4.01067 30.5177 4.73979C29.6323 5.46891 28.9215 6.38533 28.4372 7.42228C27.9528 8.45923 27.7071 9.59061 27.7179 10.734C27.7286 11.8774 27.9956 13.004 28.4994 14.0317C29.0031 15.0595 29.731 15.9625 30.63 16.675C31.529 17.3875 32.5764 17.8915 33.696 18.1504C34.8155 18.4093 35.979 18.4164 37.1017 18.1714C38.2244 17.9264 39.278 17.4353 40.1858 16.734C39.4006 17.9513 38.3275 18.9586 37.0603 19.6676C35.793 20.3766 34.3703 20.7657 32.9169 20.8008C34.4128 22.591 36.1547 24.1626 38.0913 25.4694C42.5714 28.5446 49.3587 29.3802 52.7187 37.0682C54.0255 39.9588 54.4162 43.1769 53.8387 46.2939C54.3559 46.6872 54.7761 47.1927 55.0672 47.7719C55.3584 48.3512 55.5128 48.9889 55.5188 49.6365C55.5144 50.2538 55.3728 50.8626 55.1044 51.4192C56.2897 51.5095 57.3965 52.044 58.201 52.9147C59.0056 53.7854 59.448 54.9274 59.4388 56.11C59.4388 56.1769 59.4388 56.2437 59.4388 56.2994V59.4526C59.7524 58.8733 60.0548 58.2493 60.346 57.6031C61.5228 55.0608 62.1775 52.3105 62.2717 49.5133C62.366 46.716 61.8978 43.9283 60.8948 41.3134C61.8943 38.697 62.3587 35.9084 62.2606 33.1112C62.1625 30.314 61.504 27.5644 60.3237 25.0237Z" fill="#10A37F"/>
<path d="M45.5841 38.9289C43.3441 33.8593 38.9313 33.3579 35.9632 31.2854C34.321 30.2331 32.9172 28.8519 31.8415 27.2297C30.7593 28.8503 29.3523 30.2311 27.7087 31.2854C24.7406 33.3133 20.2942 33.8593 18.0878 38.9289C17.4237 40.3142 17.0997 41.8365 17.1426 43.3707C17.1854 44.9048 17.5938 46.4069 18.3341 47.7534C18.3341 47.7534 22.2878 49.7367 31.8751 49.7367C41.4625 49.7367 45.3153 47.7534 45.3153 47.7534C46.0592 46.4087 46.4715 44.9075 46.5182 43.3734C46.5649 41.8392 46.2448 40.3159 45.5841 38.9289Z" fill="#10A37F"/>
</g>
<defs>
<clipPath id="clip0_58_726">
<rect width="61.5" height="60" fill="white" transform="translate(0.75 0.5)"/>
</clipPath>
</defs>
</svg>
